<svg width="80" height="40" fill="none" xmlns="http://www.w3.org/2000/svg"><g opacity=".8" fill="#fff"><path d="M13.967 28.355H3.17V4.384h10.797c5.954 0 10.798 4.843 10.798 10.797v2.377c0 5.954-4.844 10.797-10.798 10.797zm-8.895-1.902h8.895c4.905 0 8.896-3.99 8.896-8.895V15.18c0-4.905-3.99-8.895-8.896-8.895H5.072v20.167zm45.725 5.163h-1.901V15.181c0-4.905-3.991-8.896-8.896-8.896-2.376 0-4.61.926-6.29 2.606a8.837 8.837 0 00-2.605 6.29v16.253h-1.902V15.18c0-2.884 1.123-5.596 3.162-7.635A10.727 10.727 0 0140 4.384c5.954 0 10.797 4.843 10.797 10.797v16.435z"/><path d="M47.628 31.616h-1.902V15.181A5.732 5.732 0 0040 9.455a5.732 5.732 0 00-5.726 5.726v16.253h-1.901V15.18c0-4.206 3.421-7.628 7.627-7.628 4.206 0 7.628 3.422 7.628 7.628v16.435zm18.405-2.88c-5.954 0-10.798-4.844-10.798-10.798v-3.137c0-5.954 4.844-10.798 10.798-10.798 5.852 0 10.797 5.119 10.797 11.178v2.757c0 5.954-4.844 10.798-10.797 10.798zm0-22.83c-4.905 0-8.896 3.99-8.896 8.895v3.137c0 4.905 3.99 8.896 8.896 8.896 4.905 0 8.895-3.99 8.895-8.896v-2.757c0-5.028-4.073-9.276-8.895-9.276z"/><path d="M66.033 25.566c-4.206 0-7.628-3.422-7.628-7.628v-3.137c0-4.206 3.422-7.628 7.628-7.628 1.993 0 3.894.846 5.353 2.383 1.445 1.522 2.274 3.573 2.274 5.625v2.757c0 4.206-3.421 7.628-7.627 7.628zm0-16.491a5.732 5.732 0 00-5.726 5.726v3.137a5.732 5.732 0 005.726 5.726 5.732 5.732 0 005.725-5.726v-2.757c0-1.57-.638-3.143-1.751-4.315-1.097-1.155-2.508-1.791-3.974-1.791zM13.967 7.553H6.34v17.632h7.627c4.206 0 7.628-3.421 7.628-7.627V15.18c0-4.206-3.422-7.628-7.628-7.628zm5.726 10.005a5.732 5.732 0 01-5.726 5.726H8.242V9.454h5.725a5.732 5.732 0 015.726 5.726v2.377z"/><path d="M75.984 5.191C73.316 2.381 69.782.833 66.033.833c-5.99 0-11.11 3.79-13.091 9.097C50.862 4.823 45.845 1.214 40 1.214c-5.916 0-10.984 3.697-13.016 8.902-2.033-5.205-7.1-8.902-13.017-8.902H0v30.311h13.967c7.702 0 13.968-6.266 13.968-13.967V15.18c0-6.653 5.412-12.066 12.065-12.066S52.065 8.527 52.065 15.18v2.757c0 7.702 6.266 13.967 13.968 13.967C73.734 31.905 80 25.64 80 17.938v-2.757c0-3.66-1.464-7.301-4.016-9.99zM26.033 17.558c0 6.653-5.413 12.065-12.066 12.065H1.902V3.116h12.065c6.653 0 12.066 5.412 12.066 12.065v2.377zm52.065.38c0 6.653-5.412 12.065-12.065 12.065s-12.066-5.412-12.066-12.065v-3.137c0-6.653 5.413-12.066 12.066-12.066 3.222 0 6.266 1.337 8.571 3.766 2.22 2.338 3.494 5.502 3.494 8.68v2.757z"/><path d="M44.458 17.824a10.764 10.764 0 00-4.458-.96c-1.563 0-3.075.333-4.458.96v2.138A8.841 8.841 0 0140 18.766a8.84 8.84 0 014.458 1.196v-2.138zM.214 35.88h.04c.098 0 .212.12.343.355l1.195 1.83h-.114c0 .013.083-.104.247-.35.736-1.13 1.131-1.732 1.185-1.804l.108-.03h.068c.129.032.194.092.194.18v3.063c-.03.119-.1.178-.207.178H3.22c-.129-.032-.193-.092-.193-.181v-2.307c.033-.043-.332.525-1.097 1.706a.35.35 0 01-.176.088c-.12 0-.242-.12-.362-.357L.46 36.84v2.282c-.03.12-.099.18-.206.18H.202c-.13-.033-.194-.093-.194-.182v-3.062c.03-.119.099-.178.206-.178zm5.623-.032h.053c.129.032.194.092.194.181v1.842c0 .481.219.798.656.95.096.024.177.036.244.036.332 0 .6-.172.803-.516.058-.14.088-.298.088-.47v-1.844c.03-.12.099-.179.206-.179h.053c.129.032.194.092.194.181v1.942c0 .378-.167.71-.501.999a1.34 1.34 0 01-.813.29h-.07c-.396 0-.74-.171-1.031-.511a1.271 1.271 0 01-.282-.778v-1.944c.03-.12.099-.179.206-.179zm5.805.065h.09c.423 0 .796.163 1.12.488l.012.063v.046c-.03.119-.099.178-.206.178h-.04c-.056 0-.155-.063-.297-.189a1.193 1.193 0 00-.63-.183c-.37 0-.621.102-.754.307a.613.613 0 00-.065.287v.02c0 .233.206.388.619.465.412.082.716.173.91.272.295.178.443.411.443.702v.06c0 .372-.216.632-.65.78a1.83 1.83 0 01-.583.085h-.05c-.444 0-.838-.176-1.18-.528l-.012-.083v-.023c0-.09.07-.154.213-.19.08 0 .187.066.322.198.227.15.45.224.667.224.394 0 .65-.09.767-.272.024-.03.042-.101.053-.214 0-.218-.122-.37-.367-.455a12.67 12.67 0 00-.85-.209c-.51-.154-.765-.428-.765-.822 0-.483.268-.801.805-.954a1.76 1.76 0 01.428-.053zm3.106-.037h.053c.13.032.194.092.194.18v3.062c-.03.12-.1.179-.206.179h-.053c-.13-.032-.194-.092-.194-.181v-3.062c.03-.119.099-.178.206-.178zm4.054-.086h.091c.414 0 .807.158 1.177.473a.595.595 0 01.036.114c-.03.139-.106.208-.227.208-.062 0-.177-.065-.345-.196-.22-.13-.45-.196-.691-.196-.48 0-.87.236-1.168.71a1.555 1.555 0 00-.155.648c0 .456.206.837.618 1.142a1.4 1.4 0 00.715.207c.343 0 .668-.143.973-.428l.106-.018c.15.034.224.099.224.194v.02c0 .136-.217.308-.652.516-.22.079-.423.118-.611.118h-.09c-.381 0-.746-.134-1.095-.402-.427-.383-.641-.819-.641-1.308V37.5c0-.367.13-.72.392-1.06.39-.433.837-.65 1.343-.65zm6.35.09h1.763c.13.033.194.093.194.182v.043c-.03.119-.099.178-.206.178h-1.505v1.107h1.115c.129.032.194.093.194.181v.043c-.03.12-.1.179-.207.179h-1.102V38.9h1.517c.13.031.194.092.194.18v.044c-.03.119-.099.178-.206.178h-1.764c-.129-.032-.193-.092-.193-.181v-3.062c.03-.119.099-.178.206-.178zm3.976.008h.04c.087 0 .21.114.367.34.046.045.378.448.997 1.207l.865 1.047v-2.415c.03-.119.099-.179.206-.179h.053c.13.032.194.093.194.181v3.062c-.03.119-.1.178-.206.178h-.04c-.09 0-.212-.113-.368-.34a53.929 53.929 0 01-.996-1.206l-.865-1.047v2.395c-.014.132-.092.199-.234.199-.146-.02-.22-.081-.22-.182v-3.061c.031-.119.1-.179.207-.179zm4.847-.015h2.266c.13.032.194.093.194.181v.043c-.03.12-.099.179-.206.179h-.9v2.84c-.031.119-.1.178-.207.178h-.053c-.13-.031-.194-.092-.194-.18v-2.838h-.913c-.129-.032-.194-.092-.194-.181v-.043c.03-.12.1-.179.207-.179zm4.451.007h1.763c.13.033.194.093.194.182v.043c-.03.119-.1.178-.206.178h-1.505v1.107h1.114c.13.032.194.093.194.181v.043c-.03.12-.099.179-.206.179h-1.102V38.9h1.517c.13.031.194.092.194.18v.044c-.03.119-.1.178-.206.178h-1.764c-.129-.032-.194-.092-.194-.181v-3.062c.03-.119.1-.178.207-.178zm3.926.014c.768.013 1.2.02 1.298.02.295 0 .575.146.84.44.154.213.232.432.232.656v.05c0 .41-.213.739-.64.987-.066.027-.085.04-.054.04v-.04c.395.57.627.91.694 1.019v.07c-.03.12-.1.179-.206.179h-.04c-.101 0-.238-.147-.41-.44a19.658 19.658 0 01-.504-.718h-.923v.979c-.03.12-.099.179-.206.179h-.053c-.13-.032-.194-.093-.194-.181v-3.06c0-.072.055-.132.166-.18zm.287.412v1.449h.87c.384 0 .63-.186.74-.559a1.42 1.42 0 00.02-.165c0-.304-.156-.528-.468-.672a.799.799 0 00-.302-.043c-.19 0-.476-.003-.86-.01zm3.907-.433h2.267c.129.032.193.093.193.181v.043c-.03.12-.099.179-.206.179h-.9v2.84c-.03.119-.1.178-.207.178h-.052c-.13-.031-.194-.092-.194-.18v-2.838h-.914c-.129-.032-.193-.092-.193-.181v-.043c.03-.12.099-.179.206-.179zm5.235-.058h.01c.133 0 .237.128.315.383.78 1.742 1.203 2.703 1.27 2.883v.047c-.03.12-.1.18-.206.18h-.04c-.116 0-.211-.115-.285-.343a16.05 16.05 0 01-.294-.664h-.528c-.239 0-.572-.004-1.002-.01-.263.63-.42.96-.47.988l-.093.028h-.068c-.13-.032-.194-.092-.194-.181v-.04c0-.019.24-.57.717-1.653l.677-1.524a.255.255 0 01.191-.094zm.055.635l-.628 1.438h.583c.158 0 .349.003.574.008l-.63-1.447h.101zm3.544-.574h.053c.13.032.194.092.194.18v3.062c-.03.12-.099.179-.206.179h-.053c-.129-.032-.194-.092-.194-.181v-3.062c.03-.119.1-.178.207-.178zm2.65.012h.04c.088 0 .21.114.368.34.045.045.377.448.996 1.207l.866 1.047v-2.415c.03-.119.098-.179.206-.179h.053c.129.032.193.093.193.181v3.062c-.03.119-.099.178-.206.178h-.04c-.09 0-.212-.113-.367-.34a54.27 54.27 0 01-.997-1.206l-.865-1.047v2.395c-.013.132-.091.199-.234.199-.146-.02-.219-.081-.219-.182v-3.061c.03-.119.1-.179.206-.179zm5.047-.008h.04c.098 0 .212.12.342.355l1.195 1.83h-.113c0 .013.082-.104.247-.35.736-1.13 1.13-1.732 1.184-1.804l.109-.03h.067c.13.032.194.092.194.18v3.063c-.03.119-.099.178-.206.178h-.053c-.129-.032-.194-.092-.194-.181v-2.307c.034-.043-.331.525-1.096 1.706a.349.349 0 01-.176.088c-.121 0-.242-.12-.363-.357l-.93-1.41v2.282c-.03.12-.1.18-.206.18h-.053c-.13-.033-.194-.093-.194-.182v-3.062c.03-.119.099-.178.206-.178zm5.632 0h1.763c.13.033.194.093.194.182v.043c-.03.119-.099.178-.206.178h-1.504v1.107h1.114c.129.032.194.093.194.181v.043c-.03.12-.1.179-.207.179h-1.101V38.9h1.516c.13.031.194.092.194.18v.044c-.03.119-.099.178-.206.178h-1.763c-.13-.032-.194-.092-.194-.181v-3.062c.03-.119.099-.178.206-.178zm3.976.008h.04c.088 0 .21.114.368.34.045.045.377.448.996 1.207l.865 1.047v-2.415c.03-.119.099-.179.207-.179h.052c.13.032.194.093.194.181v3.062c-.03.119-.1.178-.206.178h-.04c-.09 0-.212-.113-.368-.34a53.784 53.784 0 01-.996-1.206l-.865-1.047v2.395c-.014.132-.092.199-.234.199-.146-.02-.22-.081-.22-.182v-3.061c.031-.119.1-.179.207-.179zm4.847-.015h2.266c.13.032.194.093.194.181v.043c-.03.12-.099.179-.206.179h-.9v2.84c-.031.119-.1.178-.207.178h-.053c-.129-.031-.194-.092-.194-.18v-2.838h-.913c-.129-.032-.194-.092-.194-.181v-.043c.03-.12.1-.179.207-.179z"/></g></svg>