<svg width="112" height="55" fill="none" xmlns="http://www.w3.org/2000/svg"><path d="M19.554 38.697H4.438V5.137h15.116c8.335 0 15.116 6.781 15.116 15.116v3.328c0 8.335-6.78 15.116-15.116 15.116zM7.101 36.035h12.453c6.867 0 12.454-5.587 12.454-12.454v-3.328c0-6.866-5.587-12.453-12.454-12.453H7.101v28.235zm64.015 7.228h-2.662v-23.01C68.454 13.386 62.867 7.8 56 7.8a12.372 12.372 0 00-8.806 3.647 12.373 12.373 0 00-3.648 8.806v22.754h-2.662V20.253c0-4.037 1.572-7.833 4.427-10.688A15.017 15.017 0 0156 5.137c8.335 0 15.116 6.781 15.116 15.116v23.01z" fill="#FF5B45"/><path d="M66.679 43.263h-2.663v-23.01c0-4.42-3.596-8.015-8.016-8.015s-8.016 3.596-8.016 8.015v22.755h-2.662V20.253c0-5.888 4.79-10.678 10.678-10.678 5.888 0 10.679 4.79 10.679 10.678v23.01z" fill="#FF7A6C"/><path d="M92.446 39.23c-8.335 0-15.117-6.781-15.117-15.116V19.72c0-8.335 6.782-15.117 15.117-15.117 8.194 0 15.116 7.167 15.116 15.65v3.86c0 8.335-6.781 15.116-15.116 15.116zm0-31.963c-6.867 0-12.454 5.587-12.454 12.454v4.392c0 6.867 5.587 12.454 12.454 12.454 6.867 0 12.453-5.587 12.453-12.454v-3.86c.001-7.039-5.703-12.986-12.453-12.986z" fill="#FF5B45"/><path d="M92.446 34.792c-5.888 0-10.679-4.79-10.679-10.678V19.72c0-5.888 4.79-10.679 10.679-10.679 2.79 0 5.452 1.185 7.494 3.337 2.024 2.13 3.184 5.001 3.184 7.874v3.86c0 5.889-4.79 10.68-10.678 10.68zm0-23.087c-4.42 0-8.016 3.596-8.016 8.016v4.393c0 4.42 3.596 8.015 8.016 8.015s8.016-3.595 8.016-8.015v-3.86c0-2.198-.894-4.4-2.453-6.042-1.534-1.617-3.51-2.507-5.563-2.507zm-72.892-2.13H8.876V34.26h10.678c5.889 0 10.679-4.79 10.679-10.679v-3.327c0-5.889-4.79-10.68-10.679-10.68zM27.57 23.58c0 4.42-3.596 8.016-8.016 8.016h-8.016v-19.36h8.016c4.42 0 8.016 3.597 8.016 8.017v3.327z" fill="#FF7A6C"/><path d="M106.377 6.268C102.643 2.333 97.695.167 92.446.167c-8.385 0-15.554 5.305-18.327 12.736C71.208 5.753 64.183.699 55.999.699c-8.281 0-15.376 5.176-18.222 12.463C34.932 5.875 27.837.699 19.554.699H0v42.436h19.554c10.783 0 19.555-8.772 19.555-19.554v-3.328c0-9.314 7.577-16.891 16.89-16.891 9.315 0 16.893 7.577 16.893 16.891v3.86c0 10.783 8.772 19.554 19.554 19.554 10.782 0 19.554-8.771 19.554-19.554v-3.86c0-5.124-2.049-10.221-5.623-13.985zM36.446 23.58c0 9.314-7.578 16.891-16.892 16.891H2.663V3.362h16.891c9.314 0 16.892 7.578 16.892 16.892v3.327zm72.891.532c0 9.315-7.577 16.892-16.891 16.892-9.314 0-16.892-7.577-16.892-16.892V19.72c0-9.314 7.578-16.892 16.892-16.892 4.511 0 8.773 1.872 12 5.272 3.108 3.274 4.891 7.704 4.891 12.152v3.86z" fill="#FF4824"/><path d="M62.24 23.954A15.07 15.07 0 0056 22.61c-2.189 0-4.305.466-6.24 1.344v2.992A12.378 12.378 0 0156 25.273c2.228 0 4.365.583 6.24 1.674v-2.993z" fill="#FF7A6C"/><path d="M.3 49.233h.056c.137 0 .296.166.48.497l1.672 2.56H2.35c0 .019.115-.144.345-.49a159.51 159.51 0 011.659-2.524l.151-.043H4.6c.181.045.271.13.271.254v4.286c-.042.167-.138.25-.288.25h-.074c-.181-.045-.271-.13-.271-.254v-3.23c.046-.06-.465.736-1.536 2.389a.49.49 0 01-.246.123c-.17 0-.339-.167-.508-.5L.645 50.578v3.195c-.042.167-.138.25-.288.25H.283c-.181-.045-.272-.13-.272-.254v-4.286c.043-.166.139-.25.29-.25zm7.872-.045h.074c.18.044.271.129.271.253v2.578c0 .674.307 1.117.92 1.331.133.033.247.05.341.05.465 0 .84-.241 1.123-.722.083-.198.124-.417.124-.659v-2.581c.042-.167.138-.25.288-.25h.074c.181.044.271.129.271.253v2.719c0 .528-.233.994-.7 1.398-.362.27-.741.405-1.138.405h-.098c-.555 0-1.036-.238-1.444-.715-.263-.348-.395-.71-.395-1.088v-2.722c.042-.167.139-.25.289-.25zm8.126.091h.127c.592 0 1.114.228 1.567.683l.018.088v.064c-.042.166-.139.25-.289.25h-.056c-.078 0-.216-.088-.416-.264a1.67 1.67 0 00-.88-.258c-.52 0-.871.144-1.057.43a.857.857 0 00-.091.402v.028c0 .326.288.543.866.651.577.115 1.002.242 1.275.38.413.25.62.577.62.983v.085c0 .52-.303.885-.909 1.092-.237.08-.51.12-.817.12h-.07c-.623 0-1.173-.247-1.652-.74l-.018-.117v-.031c0-.127.1-.216.3-.268.11 0 .26.093.45.278.317.21.628.314.934.314.551 0 .91-.127 1.074-.38.033-.043.057-.142.074-.3 0-.305-.172-.518-.514-.637a17.68 17.68 0 00-1.19-.293c-.714-.216-1.071-.6-1.071-1.151 0-.677.375-1.121 1.127-1.335.197-.05.396-.074.598-.074zm4.35-.053h.074c.18.045.27.13.27.254v4.286c-.041.166-.138.25-.288.25h-.074c-.18-.045-.271-.13-.271-.254v-4.286c.042-.166.138-.25.288-.25zm5.675-.12h.127c.58 0 1.13.221 1.648.663.033.089.05.142.05.158-.043.195-.148.292-.317.292-.087 0-.248-.091-.483-.274a1.866 1.866 0 00-.968-.275c-.672 0-1.216.331-1.634.993-.146.317-.219.62-.219.909 0 .638.289 1.171.867 1.599a1.96 1.96 0 001 .288c.481 0 .935-.2 1.363-.598l.148-.025c.209.047.313.137.313.271v.028c0 .19-.304.431-.912.723-.308.11-.593.165-.856.165h-.127c-.532 0-1.043-.188-1.531-.564-.6-.535-.898-1.145-.898-1.83V51.5c0-.514.183-1.008.549-1.482.545-.608 1.171-.913 1.88-.913zm8.89.127h2.468c.181.045.272.13.272.254v.06c-.043.167-.139.25-.29.25h-2.105v1.55h1.56c.18.044.271.128.271.253v.06c-.042.167-.138.25-.289.25h-1.542v1.55h2.123c.181.044.272.129.272.253v.06c-.043.167-.139.25-.29.25h-2.468c-.18-.045-.271-.13-.271-.254v-4.286c.042-.166.138-.25.289-.25zm5.567.011h.056c.122 0 .293.158.514.475.063.064.528.627 1.394 1.69l1.212 1.466v-3.381c.042-.167.138-.25.288-.25h.075c.18.044.27.129.27.253v4.286c-.041.167-.138.25-.288.25h-.056c-.125 0-.296-.158-.514-.475-.064-.063-.529-.627-1.395-1.69l-1.212-1.466v3.353c-.018.186-.128.278-.327.278-.204-.028-.307-.112-.307-.253v-4.286c.043-.167.139-.25.29-.25zm6.785-.021h3.173c.18.044.271.129.271.253v.06c-.042.167-.139.25-.289.25h-1.26v3.976c-.043.167-.139.25-.29.25h-.073c-.181-.044-.272-.129-.272-.253v-3.973h-1.278c-.18-.044-.271-.129-.271-.253v-.06c.042-.167.138-.25.289-.25zm6.231.01h2.469c.18.045.27.13.27.254v.06c-.041.167-.138.25-.288.25h-2.106v1.55h1.56c.18.044.271.128.271.253v.06c-.042.167-.138.25-.288.25H54.14v1.55h2.124c.18.044.27.129.27.253v.06c-.041.167-.138.25-.288.25h-2.469c-.18-.045-.27-.13-.27-.254v-4.286c.041-.166.138-.25.288-.25zm5.497.017c1.075.02 1.68.029 1.817.029.413 0 .805.205 1.176.616.216.298.325.605.325.92v.07c0 .573-.299 1.033-.895 1.38-.094.038-.12.057-.078.057v-.057c.555.799.879 1.274.973 1.427v.098c-.043.167-.139.25-.29.25h-.055c-.141 0-.333-.205-.575-.616-.035-.037-.27-.372-.704-1.004h-1.292v1.37c-.043.167-.139.25-.29.25h-.073c-.18-.044-.271-.129-.271-.253v-4.283c0-.1.077-.185.232-.253zm.401.578v2.029h1.219c.537 0 .883-.26 1.035-.782.02-.117.028-.195.028-.232 0-.425-.218-.739-.655-.94-.091-.04-.232-.06-.422-.06-.266 0-.667-.005-1.205-.015zm5.471-.605h3.173c.18.044.27.129.27.253v.06c-.041.167-.138.25-.288.25h-1.26v3.976c-.043.167-.14.25-.29.25h-.073c-.181-.044-.272-.129-.272-.253v-3.973h-1.278c-.18-.044-.271-.129-.271-.253v-.06c.042-.167.138-.25.289-.25zm7.328-.081h.014c.186 0 .333.178.44.535 1.092 2.44 1.685 3.785 1.78 4.036v.067c-.043.166-.14.25-.29.25h-.056c-.162 0-.295-.16-.398-.48a21.32 21.32 0 01-.412-.929h-.74c-.333 0-.8-.005-1.401-.014-.369.883-.588 1.344-.659 1.384l-.13.039h-.095c-.18-.045-.271-.13-.271-.254v-.056c0-.026.334-.797 1.004-2.314l.947-2.134a.356.356 0 01.267-.13zm.078.887l-.88 2.014h.817c.22 0 .488.004.803.011l-.881-2.025h.141zm4.962-.803h.074c.18.045.271.13.271.254v4.286c-.042.166-.138.25-.289.25h-.074c-.18-.045-.27-.13-.27-.254v-4.286c.041-.166.138-.25.288-.25zm3.71.018h.056c.122 0 .293.158.514.475.063.064.528.627 1.395 1.69l1.211 1.466v-3.381c.043-.167.139-.25.29-.25h.073c.18.044.271.129.271.253v4.286c-.042.167-.138.25-.289.25h-.056c-.124 0-.296-.158-.514-.475-.064-.063-.528-.627-1.395-1.69l-1.211-1.466v3.353c-.019.186-.128.278-.328.278-.204-.028-.306-.112-.306-.253v-4.286c.042-.167.138-.25.289-.25zm7.065-.011h.056c.137 0 .296.166.48.497l1.672 2.56h-.158c0 .019.115-.144.345-.49a168.171 168.171 0 011.659-2.524l.151-.043h.095c.18.045.271.13.271.254v4.286c-.042.167-.138.25-.288.25h-.074c-.181-.045-.272-.13-.272-.254v-3.23c.047-.06-.465.736-1.535 2.389a.489.489 0 01-.247.123c-.169 0-.338-.167-.507-.5l-1.303-1.973v3.195c-.042.167-.138.25-.288.25h-.075c-.18-.045-.27-.13-.27-.254v-4.286c.041-.166.138-.25.288-.25zm7.885 0h2.468c.181.045.272.13.272.254v.06c-.043.167-.139.25-.29.25h-2.105v1.55h1.56c.18.044.271.128.271.253v.06c-.042.167-.138.25-.289.25h-1.542v1.55h2.123c.181.044.272.129.272.253v.06c-.043.167-.139.25-.29.25h-2.468c-.18-.045-.271-.13-.271-.254v-4.286c.042-.166.138-.25.289-.25zm5.566.011h.056c.123 0 .294.158.515.475.063.064.528.627 1.394 1.69l1.212 1.466v-3.381c.042-.167.138-.25.289-.25h.074c.18.044.271.129.271.253v4.286c-.042.167-.139.25-.289.25h-.056c-.125 0-.296-.158-.515-.475-.063-.063-.528-.627-1.394-1.69l-1.212-1.466v3.353c-.018.186-.128.278-.327.278-.204-.028-.306-.112-.306-.253v-4.286c.042-.167.138-.25.288-.25zm6.786-.021h3.172c.181.044.272.129.272.253v.06c-.043.167-.139.25-.289.25h-1.261v3.976c-.042.167-.138.25-.289.25h-.073c-.181-.044-.272-.129-.272-.253v-3.973h-1.278c-.181-.044-.271-.129-.271-.253v-.06c.042-.167.138-.25.289-.25z" fill="#212121"/></svg>