<svg width="97" height="47" fill="none" xmlns="http://www.w3.org/2000/svg"><path d="M16.935 33.026H3.843V4.26h13.092c7.22 0 13.092 5.813 13.092 12.957v2.852c0 7.145-5.873 12.957-13.092 12.957zM6.15 30.744h10.785c5.948 0 10.786-4.789 10.786-10.675v-2.852c0-5.886-4.838-10.674-10.786-10.674H6.15v24.201zm55.442 6.196h-2.306V17.216c0-5.886-4.839-10.674-10.786-10.674-2.88 0-5.59 1.11-7.627 3.126a10.55 10.55 0 00-3.159 7.548V36.72h-2.306V17.217c0-3.46 1.362-6.714 3.835-9.162A13.075 13.075 0 0148.5 4.26c7.219 0 13.092 5.813 13.092 12.957V36.94z" fill="#fff"/><path d="M57.748 36.94h-2.305V17.216c0-3.788-3.115-6.87-6.943-6.87-3.828 0-6.942 3.082-6.942 6.87V36.72h-2.306V17.216c0-5.047 4.148-9.153 9.248-9.153s9.248 4.106 9.248 9.153V36.94zm22.317-3.457c-7.22 0-13.092-5.813-13.092-12.957V16.76c0-7.145 5.873-12.957 13.092-12.957 7.096 0 13.092 6.142 13.092 13.413v3.309c0 7.144-5.873 12.957-13.092 12.957zm0-27.397c-5.948 0-10.786 4.789-10.786 10.675v3.765c0 5.886 4.838 10.675 10.786 10.675 5.947 0 10.785-4.79 10.785-10.675v-3.309c0-6.033-4.939-11.13-10.785-11.13z" fill="#fff"/><path d="M80.065 29.68c-5.1 0-9.249-4.107-9.249-9.154v-3.765c0-5.047 4.15-9.153 9.249-9.153 2.416 0 4.722 1.016 6.49 2.86 1.753 1.826 2.758 4.287 2.758 6.75v3.308c0 5.047-4.149 9.153-9.248 9.153zm0-19.79c-3.828 0-6.943 3.082-6.943 6.871v3.765c0 3.789 3.115 6.87 6.943 6.87 3.828 0 6.942-3.081 6.942-6.87v-3.308c0-1.884-.774-3.772-2.124-5.179-1.329-1.386-3.04-2.149-4.818-2.149zm-63.13-1.826H7.687v21.158h9.248c5.1 0 9.249-4.106 9.249-9.153v-2.852c0-5.047-4.149-9.153-9.249-9.153zm6.943 12.005c0 3.789-3.115 6.871-6.943 6.871H9.993V10.346h6.942c3.828 0 6.943 3.083 6.943 6.871v2.852z" fill="#fff"/><path d="M92.13 5.23C88.896 1.857 84.61 0 80.065 0c-7.263 0-13.47 4.548-15.873 10.917C61.671 4.788 55.587.457 48.5.457c-7.173 0-13.318 4.436-15.782 10.682C30.253 4.893 24.108.456 16.935.456H0V36.83h16.935c9.339 0 16.936-7.519 16.936-16.76v-2.853C33.87 9.234 40.433 2.74 48.5 2.74s14.63 6.495 14.63 14.478v3.309c0 9.242 7.596 16.76 16.935 16.76 9.338 0 16.935-7.518 16.935-16.76v-3.309c0-4.392-1.775-8.761-4.87-11.987zM31.565 20.07c0 7.983-6.563 14.478-14.63 14.478H2.306V2.738h14.63c8.066 0 14.629 6.496 14.629 14.48v2.852zm63.129.456c0 7.983-6.563 14.478-14.63 14.478-8.066 0-14.628-6.495-14.628-14.478V16.76c0-7.984 6.562-14.479 14.629-14.479 3.907 0 7.598 1.605 10.393 4.519 2.692 2.806 4.236 6.603 4.236 10.416v3.309z" fill="#fff"/><path d="M53.905 20.39a13.167 13.167 0 00-5.405-1.153c-1.896 0-3.728.4-5.405 1.152v2.565A10.806 10.806 0 0148.5 21.52c1.93 0 3.78.5 5.405 1.434V20.39zM.26 42.057h.049c.118 0 .256.142.415.426l1.448 2.194h-.137c0 .017.1-.123.299-.42a141.669 141.669 0 011.437-2.164l.13-.036h.083c.157.038.235.11.235.217v3.674c-.037.143-.12.215-.25.215h-.064c-.157-.039-.235-.111-.235-.218v-2.768c.04-.052-.403.63-1.33 2.047a.426.426 0 01-.213.106c-.147 0-.293-.143-.44-.43L.56 43.21v2.738c-.037.143-.12.215-.25.215H.245c-.157-.039-.235-.111-.235-.218v-3.673c.036-.143.12-.215.25-.215zm6.817-.039h.064c.157.038.235.11.235.217v2.21c0 .578.266.958.796 1.141.116.028.215.042.296.042.403 0 .727-.206.973-.618.072-.17.107-.358.107-.565v-2.213c.037-.142.12-.214.25-.214h.064c.157.038.235.11.235.217v2.33c0 .454-.202.853-.607 1.2-.313.23-.641.346-.985.346H8.42c-.48 0-.897-.204-1.251-.613-.228-.297-.342-.608-.342-.932v-2.334c.037-.142.12-.214.25-.214zm7.038.078h.11c.513 0 .965.196 1.358.586l.015.075v.055c-.037.143-.12.214-.25.214h-.05c-.066 0-.186-.076-.36-.226a1.459 1.459 0 00-.762-.22c-.45 0-.754.122-.915.368a.729.729 0 00-.079.344v.024c0 .28.25.466.75.558.5.099.869.208 1.105.326.357.214.536.494.536.842v.073c0 .447-.262.759-.787.936a2.241 2.241 0 01-.707.102h-.061c-.54 0-1.016-.21-1.43-.634l-.016-.1v-.026c0-.109.086-.185.26-.23.095 0 .225.08.39.239.274.179.544.268.808.268.478 0 .788-.108.93-.326.029-.036.05-.121.064-.256 0-.262-.148-.444-.445-.547a15.491 15.491 0 00-1.03-.25c-.619-.185-.928-.514-.928-.987 0-.58.325-.961.976-1.144.17-.042.343-.064.518-.064zm3.767-.046h.064c.157.039.235.111.235.218v3.674c-.036.143-.12.214-.25.214h-.064c-.157-.038-.235-.11-.235-.217v-3.674c.037-.143.12-.214.25-.214zm4.916-.102h.11c.502 0 .978.19 1.427.568a.703.703 0 01.043.136c-.037.167-.128.25-.275.25-.075 0-.214-.078-.418-.235a1.628 1.628 0 00-.838-.236c-.582 0-1.054.284-1.416.852a1.85 1.85 0 00-.189.779c0 .547.25 1.004.75 1.37.285.165.574.247.867.247.417 0 .81-.17 1.18-.513l.128-.02c.181.04.272.117.272.231v.025c0 .163-.263.37-.79.619a2.229 2.229 0 01-.741.142h-.11c-.461 0-.904-.161-1.327-.483-.518-.46-.777-.983-.777-1.57V44c0-.44.158-.864.475-1.27.472-.522 1.015-.783 1.63-.783zm7.699.109h2.138c.156.038.235.11.235.217v.052c-.037.143-.12.214-.25.214h-1.824v1.328h1.35c.157.039.236.111.236.218v.051c-.037.143-.12.214-.25.214h-1.336v1.328h1.839c.156.039.235.111.235.218v.051c-.037.143-.12.215-.25.215h-2.138c-.157-.039-.235-.111-.235-.218v-3.673c.036-.143.12-.215.25-.215zm4.821.009h.048c.106 0 .255.136.446.408.055.054.457.537 1.208 1.449l1.049 1.256V42.28c.036-.143.12-.215.25-.215h.064c.157.039.235.111.235.218v3.673c-.037.143-.12.215-.25.215h-.049c-.108 0-.256-.136-.445-.408a65.104 65.104 0 01-1.208-1.449l-1.05-1.255v2.873c-.016.16-.11.239-.283.239-.177-.024-.265-.097-.265-.218V42.28c.036-.143.12-.215.25-.215zm5.876-.018h2.749c.156.038.234.11.234.217v.051c-.036.143-.12.215-.25.215h-1.091v3.408c-.037.143-.12.214-.25.214h-.065c-.156-.038-.235-.11-.235-.217V42.53H41.18c-.156-.038-.235-.11-.235-.218v-.05c.037-.144.12-.215.25-.215zm5.397.009h2.138c.157.038.235.11.235.217v.052c-.036.143-.12.214-.25.214H46.89v1.328h1.351c.157.039.235.111.235.218v.051c-.036.143-.12.214-.25.214H46.89v1.328h1.84c.156.039.234.111.234.218v.051c-.036.143-.12.215-.25.215h-2.138c-.157-.039-.235-.111-.235-.218v-3.673c.037-.143.12-.215.25-.215zm4.761.015c.931.016 1.456.024 1.574.024.358 0 .697.177 1.018.529.188.255.281.518.281.787v.06c0 .492-.258.886-.775 1.184-.08.032-.103.048-.067.048v-.048c.48.684.76 1.092.842 1.223v.084c-.036.143-.12.215-.25.215h-.049c-.122 0-.287-.176-.497-.529-.03-.032-.234-.319-.61-.86H51.7v1.174c-.036.143-.12.215-.25.215h-.063c-.157-.039-.235-.111-.235-.218v-3.67c0-.087.067-.16.2-.218zm.348.495v1.739h1.055c.465 0 .764-.223.897-.67.016-.1.024-.167.024-.2 0-.364-.19-.632-.567-.805a.978.978 0 00-.366-.052c-.23 0-.578-.004-1.043-.012zm4.737-.519h2.748c.157.038.235.11.235.217v.051c-.036.143-.12.215-.25.215h-1.092v3.408c-.036.143-.12.214-.25.214h-.064c-.157-.038-.235-.11-.235-.217V42.53h-1.107c-.157-.038-.235-.11-.235-.218v-.05c.037-.144.12-.215.25-.215zm6.348-.07h.012c.16 0 .287.154.38.46.946 2.09 1.46 3.243 1.541 3.459v.057c-.036.143-.12.215-.25.215h-.049c-.14 0-.255-.137-.344-.411-.04-.077-.16-.342-.357-.797h-.64c-.29 0-.694-.004-1.215-.012-.319.757-.509 1.152-.57 1.186l-.113.034h-.082c-.157-.039-.235-.111-.235-.218v-.048c0-.022.29-.683.87-1.983l.82-1.83a.31.31 0 01.232-.112zm.067.761l-.763 1.727h.708c.19 0 .423.003.695.009l-.762-1.736h.122zm4.297-.689h.064c.157.039.235.111.235.218v3.674c-.037.143-.12.214-.25.214h-.064c-.157-.038-.235-.11-.235-.217v-3.674c.037-.143.12-.214.25-.214zm3.213.016h.049c.105 0 .254.136.445.408.055.054.458.537 1.208 1.449l1.05 1.256V42.28c.036-.143.12-.215.25-.215h.063c.157.039.235.111.235.218v3.673c-.036.143-.12.215-.25.215h-.049c-.108 0-.256-.136-.445-.408a64.767 64.767 0 01-1.208-1.449l-1.05-1.255v2.873c-.015.16-.11.239-.283.239-.177-.024-.265-.097-.265-.218V42.28c.037-.143.12-.215.25-.215zm6.119-.009h.049c.118 0 .256.142.415.426l1.448 2.194h-.137c0 .017.1-.123.3-.42a144.654 144.654 0 011.436-2.164l.13-.036h.083c.157.038.235.11.235.217v3.674c-.037.143-.12.215-.25.215h-.064c-.157-.039-.235-.111-.235-.218v-2.768c.04-.052-.403.63-1.33 2.047a.425.425 0 01-.213.106c-.147 0-.293-.143-.44-.43l-1.128-1.69v2.738c-.037.143-.12.215-.25.215h-.064c-.157-.039-.235-.111-.235-.218v-3.673c.037-.143.12-.215.25-.215zm6.829 0h2.138c.156.038.235.11.235.217v.052c-.037.143-.12.214-.25.214h-1.824v1.328h1.35c.157.039.236.111.236.218v.051c-.037.143-.12.214-.25.214h-1.336v1.328h1.839c.156.039.235.111.235.218v.051c-.037.143-.12.215-.25.215h-2.139c-.156-.039-.234-.111-.234-.218v-3.673c.036-.143.12-.215.25-.215zm4.82.009h.05c.105 0 .253.136.445.408.055.054.457.537 1.208 1.449l1.049 1.256V42.28c.036-.143.12-.215.25-.215h.064c.157.039.235.111.235.218v3.673c-.037.143-.12.215-.25.215h-.049c-.108 0-.256-.136-.445-.408a64.624 64.624 0 01-1.208-1.449l-1.05-1.255v2.873c-.016.16-.11.239-.283.239-.177-.024-.265-.097-.265-.218V42.28c.036-.143.12-.215.25-.215zm5.877-.018h2.748c.157.038.235.11.235.217v.051c-.036.143-.12.215-.25.215h-1.092v3.408c-.036.143-.12.214-.25.214h-.064c-.157-.038-.235-.11-.235-.217V42.53h-1.107c-.157-.038-.235-.11-.235-.218v-.05c.037-.144.12-.215.25-.215z" fill="#fff"/></svg>